<svg xmlns="http://www.w3.org/2000/svg" xmlns:svg="http://www.w3.org/2000/svg" id="svg1035" width="144" height="2in" version="1.1" viewBox="0 0 38.1 50.8"><metadata id="metadata1032"/><g id="layer1"><path style="fill:none;stroke:#0040ff;stroke-width:2.38125;stroke-linecap:round;stroke-miterlimit:10" id="path26" d="m 31.084953,45.509891 c -13.52021,0 -24.4739616,-10.95375 -24.4739616,-24.47395 0,-3.41313 1.111252,-6.53521 3.016252,-9.07521" class="st4"/><circle style="fill:none;stroke:#0040ff;stroke-width:2.38125;stroke-linecap:round;stroke-miterlimit:10" id="circle28" cx="24.1" cy="16.432" r="1.138" class="st4"/><path style="fill:none;stroke:#999;stroke-width:2.38125;stroke-linecap:round;stroke-miterlimit:10" id="path30" d="m 29.814953,18.866351 c -0.58208,0.74084 -1.37583,1.34938 -2.24896,1.71979" class="st5"/><path style="fill:none;stroke:#999;stroke-width:2.38125;stroke-linecap:round;stroke-miterlimit:10" id="path32" d="m 30.582243,12.278231 c 0.3175,0.92604 0.47625,1.93146 0.47625,2.98979" class="st5"/><path style="fill:none;stroke:#999;stroke-width:2.38125;stroke-linecap:round;stroke-miterlimit:10" id="path34" d="m 26.110793,6.9865612 c 0.9525,0.50271 1.79916,1.16417 2.51354,1.93146" class="st5"/><path style="fill:none;stroke:#999;stroke-width:2.38125;stroke-linecap:round;stroke-miterlimit:10" id="path36" d="m 19.258083,6.1134412 c 0.79375,-0.1323 1.64041,-0.21167 2.48708,-0.21167 0.23813,0 0.44979,0 0.66146,0.0265" class="st5"/><path style="fill:none;stroke:#999;stroke-width:2.38125;stroke-linecap:round;stroke-miterlimit:10" id="path38" d="m 12.908083,8.7328112 c 0.84666,-0.60854 1.74625,-1.11125 2.69875,-1.53458" class="st5"/></g></svg>